<?xml version="1.0" standalone="no"?>
<!DOCTYPE svg PUBLIC "-//W3C//DTD SVG 1.1//EN" "http://www.w3.org/Graphics/SVG/1.1/DTD/svg11.dtd" >
<svg xmlns="http://www.w3.org/2000/svg">
<metadata></metadata>
<defs>
<font id="daxlineprobold" horiz-adv-x="1335" >
<font-face units-per-em="2048" ascent="1587" descent="-461" />
<missing-glyph horiz-adv-x="507" />
<glyph unicode="&#xfb01;" horiz-adv-x="1296" d="M63 895v209h138v123q0 192 113.5 289.5t303.5 97.5q56 0 91 -6v-217l-13 1q-13 1 -24 1q-89 0 -143 -40.5t-54 -125.5v-123h213v-209h-213v-895h-274v895h-138zM868 1419q0 63 46 107.5t112 44.5t113 -44.5t47 -107.5t-47 -106t-113 -43t-112 43t-46 106zM887 0v1104h280 v-1104h-280z" />
<glyph unicode="&#xfb02;" horiz-adv-x="1318" d="M63 895v209h138v123q0 192 113.5 289.5t303.5 97.5q56 0 91 -6v-217l-13 1q-13 1 -24 1q-89 0 -143 -40.5t-54 -125.5v-123h213v-209h-213v-895h-274v895h-138zM911 0v1608h279v-1608h-279z" />
<glyph horiz-adv-x="0" />
<glyph horiz-adv-x="0" />
<glyph horiz-adv-x="682" />
<glyph unicode="&#xd;" horiz-adv-x="507" />
<glyph unicode=" "  horiz-adv-x="507" />
<glyph unicode="&#x09;" horiz-adv-x="507" />
<glyph unicode="&#xa0;" horiz-adv-x="507" />
<glyph unicode="!" horiz-adv-x="600" d="M125 158q0 72 51 124t123 52t124 -52t52 -124t-52 -124t-124 -52t-123 52t-51 124zM135 1483h330l-43 -965h-244z" />
<glyph unicode="&#x22;" horiz-adv-x="964" d="M129 1436q47 65 131 65q82 0 129 -65l-49 -623h-160zM573 1436q47 65 132 65q82 0 129 -65l-50 -623h-159z" />
<glyph unicode="#" horiz-adv-x="1546" d="M115 395v193h254l47 323h-226v193h254l54 379h215l-54 -379h318l53 379h215l-53 -379h225v-193h-254l-47 -323h225v-193h-251l-56 -395h-217l57 395h-317l-55 -395h-215l55 395h-227zM584 588h317l47 323h-317z" />
<glyph unicode="$" horiz-adv-x="1169" d="M109 55l102 248q55 -30 137.5 -51t151.5 -21q122 0 189 46t67 133q0 39 -17 71.5t-51 58.5t-67.5 44t-83.5 39q-46 20 -78.5 35.5t-78.5 41t-78 50t-67 60t-56.5 72.5t-35.5 86t-14 103q0 171 103.5 283t285.5 141l-16 299h223l-33 -289q182 -9 314 -78l-97 -229 q-48 26 -118.5 45t-139.5 19q-115 0 -174 -44t-59 -126q0 -37 18 -70t52.5 -60t69.5 -47t85 -43q153 -71 217 -114q193 -131 193 -330q0 -176 -110 -292.5t-304 -147.5l16 -314h-229l33 303q-92 4 -190 26.5t-160 51.5z" />
<glyph unicode="%" horiz-adv-x="2011" d="M109 1042q0 136 39 239.5t120.5 164.5t196.5 61t196.5 -61t120.5 -164.5t39 -239.5q0 -208 -92 -336t-264 -128t-264 128t-92 336zM324 1044q0 -136 36 -207t105 -71t105 71t36 207q0 137 -36 209t-105 72t-105 -72t-36 -209zM645 29l545 1478l176 -53l-547 -1479z M1190 440q0 209 91.5 337t262.5 128q172 0 264.5 -128.5t92.5 -336.5t-92.5 -336.5t-264.5 -128.5q-171 0 -262.5 128t-91.5 337zM1405 442q0 -278 139 -278q69 0 105.5 71t36.5 207q0 137 -36.5 209t-105.5 72q-139 0 -139 -281z" />
<glyph unicode="&#x26;" horiz-adv-x="1452" d="M92 399q0 145 80 243t211 144v5q-116 40 -174.5 125t-58.5 194q0 169 127.5 283t353.5 114q105 0 201.5 -22.5t162.5 -57.5l-88 -215q-104 56 -241 56q-113 0 -175.5 -47t-62.5 -136q0 -84 60 -134t159 -50q73 0 144 12l559 97l34 -213l-235 -39v-703q-75 -34 -198.5 -57 t-262.5 -23q-285 0 -440.5 108t-155.5 316zM379 420q0 -225 317 -225q108 0 178 24v494l-221 -37q-274 -45 -274 -256z" />
<glyph unicode="'" horiz-adv-x="520" d="M129 1436q47 65 131 65q82 0 129 -65l-49 -623h-160z" />
<glyph unicode="(" horiz-adv-x="817" d="M109 608q0 586 444 1061l207 -115q-348 -432 -348 -946q0 -512 348 -944l-207 -115q-444 475 -444 1059z" />
<glyph unicode=")" horiz-adv-x="817" d="M57 -336q349 433 349 944q0 513 -349 946l207 115q445 -477 445 -1061q0 -582 -445 -1059z" />
<glyph unicode="*" horiz-adv-x="1187" d="M121 1237q0 45 23.5 82.5t64.5 56.5l305 -129l-29 334q44 53 119 53t119 -53l-29 -334l305 129q41 -19 64.5 -56.5t23.5 -82.5q0 -44 -18 -74l-332 -76l224 -253q-3 -57 -50 -100.5t-104 -43.5q-11 0 -35 4l-168 285l-168 -285q-24 -4 -35 -4q-57 0 -103.5 43.5 t-49.5 100.5l223 253l-332 76q-18 30 -18 74z" />
<glyph unicode="+" horiz-adv-x="1122" d="M125 557v217h319v330h234v-330h319v-217h-319v-330h-234v330h-319z" />
<glyph unicode="," horiz-adv-x="555" d="M-14 -346l188 582q66 98 180 98q111 0 129 -98l-303 -582h-194z" />
<glyph unicode="-" horiz-adv-x="819" d="M117 547v237h585v-237h-585z" />
<glyph unicode="." horiz-adv-x="557" d="M102 158q0 72 52.5 124t124.5 52t124 -52t52 -124t-52 -124t-124 -52t-124.5 52t-52.5 124z" />
<glyph unicode="/" horiz-adv-x="991" d="M-14 -338l680 1985l262 -78l-680 -1983z" />
<glyph unicode="0" horiz-adv-x="1220" d="M96 553q0 167 56.5 295t174.5 204t283 76t283 -76t174.5 -204t56.5 -295t-56.5 -295.5t-174.5 -205.5t-283 -77t-283 77t-174.5 205.5t-56.5 295.5zM379 555q0 -168 58.5 -260t172.5 -92t173 92t59 260t-59 260t-173 92t-172.5 -92t-58.5 -260z" />
<glyph unicode="1" horiz-adv-x="880" d="M47 895q132 22 266 83.5t189 125.5h225v-1104h-285v793q-57 -35 -161.5 -68t-190.5 -45z" />
<glyph unicode="2" horiz-adv-x="1017" d="M43 0l477 569q29 36 45.5 58.5t32.5 56.5t16 61q0 69 -45.5 109.5t-138.5 40.5q-130 0 -270 -64l-78 218q75 35 184 57t211 22q216 0 322 -94.5t106 -251.5q0 -135 -147 -286l-256 -265h432v-231h-891z" />
<glyph unicode="3" horiz-adv-x="1028" d="M20 -272l86 219q138 -60 281 -60q129 0 205 52.5t76 148.5q0 108 -99.5 164.5t-261.5 56.5h-22v205q155 11 248.5 71t93.5 150q0 75 -53.5 118.5t-155.5 43.5q-144 0 -283 -66l-80 218q84 37 193 58t209 21q221 0 333.5 -99.5t112.5 -268.5q0 -101 -68 -188t-163 -126v-4 q125 -42 201.5 -129.5t76.5 -226.5q0 -194 -144.5 -315t-387.5 -121q-103 0 -210 21t-188 57z" />
<glyph unicode="4" horiz-adv-x="1232" d="M94 0v199l604 905h308v-905h135v-199h-135v-326h-261v326h-651zM338 199h418v463l4 196h-4q-44 -92 -99 -176z" />
<glyph unicode="5" horiz-adv-x="1036" d="M29 -272l86 219q54 -24 137.5 -42t157.5 -18q122 0 195 56.5t73 152.5q0 112 -86 177t-273 65q-80 0 -202 -16l86 782h715v-232h-478l-37 -329h37q252 0 386.5 -117t134.5 -322q0 -115 -43 -203.5t-118 -142.5t-170.5 -81t-207.5 -27q-208 0 -393 78z" />
<glyph unicode="6" horiz-adv-x="1220" d="M96 539q0 176 64.5 330.5t178.5 269.5t266.5 195.5t332.5 119.5l70 -225q-428 -98 -572 -385q91 33 199 33q231 0 361 -115.5t130 -319.5q0 -97 -37 -182.5t-102.5 -148.5t-161 -99.5t-207.5 -36.5q-132 0 -234.5 45.5t-164 125t-92.5 179t-31 214.5zM367 537 q0 -152 65 -244t186 -92q104 0 169 71.5t65 171.5q0 115 -70.5 177.5t-191.5 62.5q-128 0 -215 -35q-8 -49 -8 -112z" />
<glyph unicode="7" horiz-adv-x="1120" d="M72 872v232h987l-594 -1430h-313l526 1198h-606z" />
<glyph unicode="8" horiz-adv-x="1220" d="M94 365q0 70 21.5 127.5t64 102.5t90.5 78.5t117 69.5q-125 70 -190.5 148.5t-65.5 191.5q0 163 129.5 267t349.5 104t350 -104t130 -267q0 -113 -65.5 -191.5t-190.5 -148.5q69 -35 117 -69t90.5 -79t63.5 -102.5t21 -127.5q0 -174 -140.5 -282t-375.5 -108t-375.5 108 t-140.5 282zM367 377q0 -86 66 -139.5t177 -53.5t177.5 53.5t66.5 139.5q0 47 -17 85t-55 70.5t-73.5 54t-98.5 54.5q-50 -26 -80 -43t-65 -43t-53.5 -50t-31.5 -57t-13 -71zM393 1079q0 -41 14.5 -74t47 -62t66 -50t89.5 -51q56 30 89.5 51t66 50t47 62t14.5 74 q0 82 -55.5 130t-161.5 48t-161.5 -48t-55.5 -130z" />
<glyph unicode="9" horiz-adv-x="1220" d="M94 662q0 199 141.5 332.5t366.5 133.5q132 0 234.5 -45.5t164 -124.5t92.5 -178.5t31 -214.5q0 -176 -64.5 -330.5t-178 -269.5t-266.5 -195.5t-332 -119.5l-70 225q427 98 571 385q-91 -33 -198 -33q-232 0 -362 115.5t-130 319.5zM369 662q0 -115 70.5 -177.5 t191.5 -62.5q128 0 215 35q8 49 8 112q0 153 -65.5 245.5t-186.5 92.5q-104 0 -168.5 -72t-64.5 -173z" />
<glyph unicode=":" horiz-adv-x="612" d="M131 158q0 72 52 124t124 52t124 -52t52 -124t-52 -124t-124 -52t-124 52t-52 124zM131 825q0 72 52 124t124 52t124 -52t52 -124t-52 -123t-124 -51t-124 51t-52 123z" />
<glyph unicode=";" horiz-adv-x="612" d="M-4 -346l188 582q66 98 181 98q111 0 129 -98l-304 -582h-194zM139 825q0 72 51 124t123 52t124 -52t52 -124t-52 -123t-124 -51t-123 51t-51 123z" />
<glyph unicode="&#x3c;" horiz-adv-x="1122" d="M125 573v185l872 420v-254l-616 -258l616 -258v-254z" />
<glyph unicode="=" horiz-adv-x="1122" d="M125 332v215h872v-215h-872zM125 784v215h872v-215h-872z" />
<glyph unicode="&#x3e;" horiz-adv-x="1122" d="M125 154v254l618 258l-618 258v254l872 -420v-185z" />
<glyph unicode="?" horiz-adv-x="1026" d="M53 1427q78 36 185.5 58t214.5 22q238 0 364.5 -99t126.5 -288q0 -73 -30 -137.5t-81 -111t-107.5 -79.5t-119.5 -55l-16 -219h-232l-22 356q137 31 225 89.5t88 142.5q0 172 -235 172q-67 0 -143.5 -17.5t-129.5 -43.5zM299 158q0 72 52 124t124 52t124 -52t52 -124 t-52 -124t-124 -52t-124 52t-52 124z" />
<glyph unicode="@" horiz-adv-x="2107" d="M102 518q0 211 70.5 392t198.5 313.5t318.5 208t420.5 75.5q170 0 315 -42t251 -117.5t180.5 -178t111.5 -226t37 -259.5q0 -145 -39.5 -263.5t-109 -200t-167 -137t-211 -81t-243.5 -25.5q-298 0 -462.5 147t-164.5 415q0 251 134.5 393.5t367.5 142.5q214 0 350 -114 v-752q301 100 301 475q0 132 -40.5 243.5t-119.5 196t-204.5 132t-286.5 47.5q-177 0 -321 -58t-241 -162t-149.5 -248.5t-52.5 -316.5q0 -170 57.5 -311t166 -244t274.5 -160t373 -57q178 0 339.5 46.5t270.5 121.5l119 -178q-290 -201 -729 -201q-255 0 -464.5 72 t-352 201.5t-220.5 311.5t-78 398zM852 539q0 -178 93.5 -267.5t260.5 -89.5h17v670q-52 29 -123 29q-121 0 -184.5 -87t-63.5 -255z" />
<glyph unicode="A" horiz-adv-x="1359" d="M14 0l496 1483h340l496 -1483h-302l-108 346h-512l-109 -346h-301zM481 559h398l-156 506q-12 37 -22 82t-15 71l-4 27h-4q-14 -96 -41 -180z" />
<glyph unicode="B" horiz-adv-x="1261" d="M137 55v1372q189 80 447 80q273 0 413 -110t140 -295q0 -122 -68.5 -212t-163.5 -116v-4q48 -16 93 -45t86.5 -73t66.5 -109t25 -140q0 -202 -151 -315t-437 -113q-123 0 -248 22.5t-203 57.5zM412 219q70 -24 174 -24q305 0 305 227q0 124 -92 182q-74 47 -201 47h-186 v-432zM412 856h182q137 0 197 49q71 58 71 170q0 102 -69 157.5t-209 55.5q-105 0 -172 -24v-408z" />
<glyph unicode="C" horiz-adv-x="1073" d="M94 741q0 188 45.5 336.5t126.5 241t186.5 140.5t229.5 48q96 0 182 -22t140 -58l-91 -231q-78 59 -196 59q-147 0 -236.5 -133.5t-89.5 -378.5t89.5 -377.5t236.5 -132.5q119 0 196 58l91 -236q-54 -36 -139 -58t-183 -22q-124 0 -229.5 48t-186.5 140.5t-126.5 241 t-45.5 336.5z" />
<glyph unicode="D" horiz-adv-x="1294" d="M137 55v1372q72 35 181.5 57.5t226.5 22.5q313 0 484 -197.5t171 -568.5t-171 -568.5t-484 -197.5q-120 0 -228.5 22.5t-179.5 57.5zM426 240q47 -21 135 -21q162 0 256 128t94 394t-94 394.5t-256 128.5q-81 0 -135 -21v-1003z" />
<glyph unicode="E" horiz-adv-x="1017" d="M137 0v1483h789v-242h-506v-371h457v-237h-457v-391h506v-242h-789z" />
<glyph unicode="F" horiz-adv-x="995" d="M137 0v1483h781v-242h-498v-371h450v-237h-450v-633h-283z" />
<glyph unicode="G" horiz-adv-x="1304" d="M94 741q0 351 190.5 558.5t508.5 207.5q111 0 211 -22.5t159 -57.5l-90 -225q-104 60 -270 60q-89 0 -164 -32t-133 -94t-90.5 -163t-32.5 -230q0 -128 30 -230.5t81.5 -165t116 -95.5t137.5 -33q105 0 157 23v413h-227v219h498v-819q-64 -34 -173 -57t-235 -23 q-310 0 -492 207t-182 559z" />
<glyph unicode="H" horiz-adv-x="1306" d="M137 0v1483h289v-613h455v613h288v-1483h-288v633h-455v-633h-289z" />
<glyph unicode="I" horiz-adv-x="563" d="M137 0v1483h289v-1483h-289z" />
<glyph unicode="J" horiz-adv-x="563" d="M-121 -201q258 65 258 365v1319h289v-1319q0 -276 -142 -428t-405 -185v248z" />
<glyph unicode="K" horiz-adv-x="1249" d="M137 0v1483h289v-672h4l465 672h326l-498 -709l508 -774h-328l-473 737h-4v-737h-289z" />
<glyph unicode="L" horiz-adv-x="950" d="M137 0v1483h289v-1241h461v-242h-750z" />
<glyph unicode="M" horiz-adv-x="1783" d="M78 0l184 1483h328l258 -867q11 -38 22 -85.5t16 -76.5l5 -28h4q18 104 43 190l256 867h328l184 -1483h-268l-105 944q-4 41 -7.5 91t-5.5 80l-1 30h-4q-20 -107 -49 -201l-281 -944h-184l-283 944q-13 42 -25 92t-18 80l-6 29h-4q-4 -109 -14 -201l-105 -944h-268z" />
<glyph unicode="N" horiz-adv-x="1376" d="M137 0v1483h248l518 -856q21 -36 43 -79.5t34 -69.5l11 -25h4q-4 104 -4 198v832h248v-1483h-238l-530 879q-22 36 -44 79.5t-33 69.5l-11 25h-4q4 -101 4 -193v-860h-246z" />
<glyph unicode="O" d="M94 741q0 164 35.5 302t105 242.5t180.5 163t253 58.5t253 -58.5t180 -163t104.5 -242.5t35.5 -302t-35.5 -302t-104.5 -242.5t-180 -163t-253 -58.5t-253 58.5t-180.5 163t-105 242.5t-35.5 302zM383 741q0 -235 73.5 -372.5t211.5 -137.5t211 137.5t73 372.5t-73 372.5 t-211 137.5t-211.5 -137.5t-73.5 -372.5z" />
<glyph unicode="P" horiz-adv-x="1206" d="M137 0v1427q184 80 428 80q273 0 422.5 -127.5t149.5 -347.5q0 -209 -151 -338t-429 -129q-82 0 -137 10v-575h-283zM420 795q53 -11 123 -11q151 0 231 66t80 184q0 252 -285 252q-85 0 -149 -22v-469z" />
<glyph unicode="Q" d="M94 741q0 164 35.5 302t105 242.5t180.5 163t253 58.5t253 -58.5t180 -163t104.5 -242.5t35.5 -302q0 -210 -58 -378t-171 -267l231 -321l-219 -176l-238 389q-60 -13 -118 -13q-142 0 -253 58.5t-180.5 163t-105 242.5t-35.5 302zM383 741q0 -235 73.5 -372.5 t211.5 -137.5t211 137.5t73 372.5t-73 372.5t-211 137.5t-211.5 -137.5t-73.5 -372.5z" />
<glyph unicode="R" horiz-adv-x="1269" d="M137 0v1427q184 80 445 80q274 0 416.5 -117.5t142.5 -328.5q0 -150 -81 -241.5t-208 -127.5v-4q104 -57 172 -217l199 -471h-305l-187 455q-60 147 -201 147h-108v-602h-285zM422 807h153q283 0 283 237q0 244 -270 244q-99 0 -166 -24v-457z" />
<glyph unicode="S" horiz-adv-x="1050" d="M76 55l94 250q51 -30 125 -49.5t147 -19.5q103 0 164.5 49t61.5 131q0 71 -52.5 117t-150.5 90q-50 23 -86 42t-83.5 49t-80 63.5t-63 76.5t-45.5 97.5t-15 117.5q0 199 130 318.5t351 119.5q104 0 195.5 -22t151.5 -58l-91 -233q-45 27 -111.5 46.5t-131.5 19.5 q-93 0 -149 -48.5t-56 -126.5q0 -37 16 -68t49 -57t64 -44t80 -42l56 -28t55.5 -30t57.5 -35t52.5 -38.5t50 -46t40 -52.5t34 -62t19.5 -70t8 -82q0 -206 -135 -330.5t-371 -124.5q-106 0 -211 22.5t-170 57.5z" />
<glyph unicode="T" horiz-adv-x="1040" d="M63 1241v242h914v-242h-311v-1241h-289v1241h-314z" />
<glyph unicode="U" horiz-adv-x="1286" d="M137 438v1045h289v-1047q0 -96 62 -152.5t155 -56.5t155 56.5t62 152.5v1047h289v-1045q0 -214 -141.5 -336t-364.5 -122t-364.5 122t-141.5 336z" />
<glyph unicode="V" horiz-adv-x="1265" d="M25 1483h313l250 -965q11 -42 22 -95t16 -85l5 -33h4q18 119 43 213l250 965h313l-455 -1483h-305z" />
<glyph unicode="W" horiz-adv-x="1869" d="M47 1483h291l192 -932l33 -197h4q13 109 33 197l215 932h240l215 -932q9 -39 17 -88.5t12 -78.5l4 -30h4q14 109 32 197l193 932h291l-367 -1483h-280l-203 860q-10 44 -19.5 96.5t-13.5 83.5l-4 31h-4q-14 -113 -37 -211l-201 -860h-280z" />
<glyph unicode="X" horiz-adv-x="1230" d="M16 0l428 768l-397 715h315l252 -486h4l250 486h316l-398 -715l428 -768h-317l-279 539h-4l-280 -539h-318z" />
<glyph unicode="Y" horiz-adv-x="1198" d="M14 1483h312l270 -611h4l272 611h312l-441 -901v-582h-288v582z" />
<glyph unicode="Z" horiz-adv-x="1062" d="M43 0l537 1241h-488v242h883l-535 -1241h539v-242h-936z" />
<glyph unicode="[" horiz-adv-x="782" d="M154 -399v2007h536v-217h-264v-1573h264v-217h-536z" />
<glyph unicode="\" horiz-adv-x="991" d="M63 1569l263 78l682 -1985l-265 -76z" />
<glyph unicode="]" horiz-adv-x="782" d="M92 -182h264v1573h-264v217h537v-2007h-537v217z" />
<glyph unicode="^" horiz-adv-x="1241" d="M143 926l353 430q49 59 125 59q75 0 124 -59l353 -430l-172 -140l-305 377l-306 -377z" />
<glyph unicode="_" horiz-adv-x="1212" d="M-8 -254h1229v-190h-1229v190z" />
<glyph unicode="`" horiz-adv-x="702" d="M84 1501q9 28 41.5 45t73.5 17q94 0 153 -62l144 -270h-191z" />
<glyph unicode="a" horiz-adv-x="1107" d="M74 332q0 73 24 131t70.5 97.5t103 67t134 44.5t150.5 25.5t165 13.5v57q0 158 -207 158q-73 0 -159 -19.5t-150 -46.5l-70 189q77 33 187.5 56t222.5 23q219 0 329.5 -93t110.5 -300v-680q-64 -34 -179 -57t-235 -23q-246 0 -371.5 93t-125.5 264zM336 338 q0 -78 59 -121t168 -43q102 0 158 23v335q-52 -3 -86.5 -5.5t-78.5 -8.5t-73 -14.5t-59.5 -23t-48 -33.5t-28.5 -46.5t-11 -62.5z" />
<glyph unicode="b" horiz-adv-x="1165" d="M125 55v1553h278v-527q79 37 195 37q218 0 349.5 -143t131.5 -393q0 -304 -146.5 -455.5t-416.5 -151.5q-110 0 -214.5 22.5t-176.5 57.5zM403 217q49 -22 129 -22q124 0 195.5 93t71.5 271q0 162 -67.5 254t-186.5 92q-81 0 -142 -28v-660z" />
<glyph unicode="c" horiz-adv-x="935" d="M86 553q0 143 40.5 255t110 180.5t157 104t186.5 35.5q180 0 292 -75l-88 -201q-62 47 -163 47q-108 0 -177 -89.5t-69 -254.5q0 -164 70 -254t176 -90q98 0 163 49l88 -209q-116 -76 -292 -76q-99 0 -186.5 36t-157 105t-110 181.5t-40.5 255.5z" />
<glyph unicode="d" horiz-adv-x="1165" d="M86 545q0 261 134 415t382 154q94 0 158 -22v516h280v-1553q-63 -34 -172.5 -57t-230.5 -23q-265 0 -408 150t-143 420zM365 549q0 -168 69 -261t197 -93q87 0 129 22v666q-46 20 -129 20q-127 0 -196.5 -96.5t-69.5 -257.5z" />
<glyph unicode="e" horiz-adv-x="1159" d="M86 553q0 258 137 416.5t375 158.5q225 0 350 -135.5t125 -365.5q0 -62 -4 -95l-711 -96q18 -119 99.5 -180t206.5 -61q82 0 165 19t142 50l80 -209q-70 -36 -180 -58t-228 -22q-267 0 -412 158t-145 420zM340 612l463 64q0 122 -56 186t-155 64q-112 0 -180.5 -81.5 t-71.5 -232.5z" />
<glyph unicode="f" horiz-adv-x="757" d="M63 895v209h138v123q0 192 113.5 289.5t303.5 97.5q56 0 91 -6v-217l-13 1q-13 1 -24 1q-89 0 -143 -40.5t-54 -125.5v-123h213v-209h-213v-895h-274v895h-138z" />
<glyph unicode="g" horiz-adv-x="1165" d="M86 569q0 274 150 416.5t415 142.5q113 0 215.5 -22t173.5 -57v-1035q0 -229 -130 -352t-357 -123q-244 0 -420 86l80 219q127 -67 311 -67q240 0 240 237v68q-83 -39 -205 -39q-214 0 -343.5 140t-129.5 386zM365 580q0 -159 67.5 -242.5t185.5 -83.5q82 0 146 31v606 q-53 22 -137 22q-121 0 -191.5 -83t-70.5 -250z" />
<glyph unicode="h" horiz-adv-x="1169" d="M125 0v1608h278v-537q109 51 232 51q196 0 302.5 -96t106.5 -276v-750h-280v721q0 90 -52.5 136t-148.5 46q-89 0 -160 -41v-862h-278z" />
<glyph unicode="i" horiz-adv-x="536" d="M109 1432q0 63 46.5 106t112.5 43t113 -43t47 -106t-47 -107.5t-113 -44.5t-112.5 44.5t-46.5 107.5zM129 0v1104h279v-1104h-279z" />
<glyph unicode="j" horiz-adv-x="536" d="M-96 -225q100 31 162.5 118.5t62.5 245.5v965h279v-965q0 -523 -504 -596v232zM109 1432q0 63 46.5 106t112.5 43t113 -43t47 -106t-47 -107.5t-113 -44.5t-112.5 44.5t-46.5 107.5z" />
<glyph unicode="k" horiz-adv-x="1134" d="M127 0v1608h276v-987h5l364 483h322l-398 -516l424 -588h-315l-397 557h-5v-557h-276z" />
<glyph unicode="l" horiz-adv-x="536" d="M129 0v1608h279v-1608h-279z" />
<glyph unicode="m" horiz-adv-x="1779" d="M125 0v1049q198 79 416 79q230 0 354 -112q60 46 158 79t213 33q182 0 286.5 -98t104.5 -266v-764h-281v735q0 81 -48.5 125.5t-133.5 44.5q-103 0 -164 -55v-850h-280v748q0 73 -51.5 115t-141.5 42q-91 0 -154 -26v-879h-278z" />
<glyph unicode="n" horiz-adv-x="1169" d="M125 0v1049q197 79 440 79q479 0 479 -372v-756h-280v727q0 84 -50.5 131t-144.5 47q-97 0 -166 -26v-879h-278z" />
<glyph unicode="o" horiz-adv-x="1171" d="M86 553q0 255 132.5 415t367.5 160t367 -160t132 -415q0 -124 -33 -229.5t-95 -183t-157.5 -121.5t-213.5 -44q-157 0 -271.5 76t-171.5 205.5t-57 296.5zM365 555q0 -168 56 -260t165 -92t165 92t56 260t-56 261t-165 93t-165 -93t-56 -261z" />
<glyph unicode="p" horiz-adv-x="1165" d="M125 -440v1489q65 34 174 56.5t229 22.5q265 0 408 -150t143 -421q0 -261 -134 -415t-382 -154q-90 0 -160 24v-452h-278zM403 221q46 -20 132 -20q127 0 195.5 97t68.5 259q0 168 -69.5 261t-197.5 93q-83 0 -129 -22v-668z" />
<glyph unicode="q" horiz-adv-x="1165" d="M86 522q0 304 147.5 455t417.5 151q110 0 213.5 -22.5t175.5 -56.5v-1489h-280v463q-79 -37 -195 -37q-218 0 -348.5 143t-130.5 393zM365 547q0 -163 67 -254.5t186 -91.5q81 0 142 28v660q-49 22 -129 22q-123 0 -194.5 -92.5t-71.5 -271.5z" />
<glyph unicode="r" horiz-adv-x="765" d="M125 0v1049q202 79 450 79q82 0 144 -10l-51 -231q-56 16 -125 16q-85 0 -140 -22v-881h-278z" />
<glyph unicode="s" horiz-adv-x="948" d="M63 55l91 213q42 -27 120.5 -49t137.5 -22q75 0 120.5 32.5t45.5 87.5q0 56 -42 88.5t-128 63.5q-40 15 -62 23.5t-60.5 27t-61 34.5t-51 42.5t-44 54.5t-26.5 67.5t-11 84.5q0 148 107.5 236.5t298.5 88.5q193 0 340 -79l-86 -191q-39 24 -103.5 44t-116.5 20 q-72 0 -113.5 -32t-41.5 -83q0 -57 41 -89t127 -63q134 -49 191 -87q132 -88 132 -251q0 -159 -115.5 -250.5t-332.5 -91.5q-98 0 -195 23t-162 57z" />
<glyph unicode="t" horiz-adv-x="753" d="M57 895v209h142v246l274 80v-326h207v-209h-207v-545q0 -121 127 -121q42 0 80 17v-232q-62 -30 -168 -30q-159 0 -236 87t-77 261v563h-142z" />
<glyph unicode="u" horiz-adv-x="1155" d="M125 385v719h278v-725q0 -174 187 -174q100 0 162 24v875h278v-1049q-73 -36 -193 -58t-247 -22q-233 0 -349 99t-116 311z" />
<glyph unicode="v" horiz-adv-x="1183" d="M31 1104h315l203 -688q11 -37 21.5 -81.5t15.5 -70.5l4 -26h4q16 94 41 178l203 688h313l-397 -1104h-324z" />
<glyph unicode="w" horiz-adv-x="1726" d="M49 1104h281l157 -676q8 -36 15.5 -81t10.5 -72l3 -27h4q17 98 37 180l178 676h256l178 -676l37 -180h4q11 98 29 180l158 676h280l-321 -1104h-289l-170 629q-9 34 -16.5 75.5t-10.5 65.5l-4 25h-4q-13 -90 -33 -166l-170 -629h-288z" />
<glyph unicode="x" horiz-adv-x="1128" d="M14 0l377 571l-346 533h315l201 -352h4l203 352h313l-344 -533l377 -571h-321l-228 383h-4l-225 -383h-322z" />
<glyph unicode="y" horiz-adv-x="1181" d="M31 1104h315l207 -694q11 -36 20.5 -79.5t12.5 -68.5l4 -26h4q12 92 37 174l207 694h313l-578 -1544h-292l165 440z" />
<glyph unicode="z" horiz-adv-x="970" d="M51 0l445 885h-408v219h797l-443 -885h451v-219h-842z" />
<glyph unicode="{" horiz-adv-x="790" d="M70 492v225q75 3 120.5 52.5t45.5 131.5q0 66 -16.5 162t-16.5 166q0 181 98.5 280t294.5 99h88v-217h-45q-78 0 -121 -41t-43 -121q0 -70 16.5 -166t16.5 -162q0 -114 -53 -189.5t-150 -105.5v-4q97 -30 150 -105.5t53 -189.5q0 -66 -16.5 -161.5t-16.5 -165.5 q0 -80 43 -121t121 -41h45v-217h-88q-196 0 -294.5 99t-98.5 280q0 70 16.5 165.5t16.5 161.5q0 82 -46 132t-120 53z" />
<glyph unicode="|" horiz-adv-x="544" d="M133 -440v2048h279v-2048h-279z" />
<glyph unicode="}" horiz-adv-x="790" d="M106 -182h46q78 0 120.5 41t42.5 121q0 70 -16 165.5t-16 161.5q0 114 53 189.5t149 105.5v4q-96 30 -149 105.5t-53 189.5q0 66 16 162t16 166q0 80 -42.5 121t-120.5 41h-46v217h89q196 0 294.5 -99t98.5 -280q0 -70 -16.5 -166t-16.5 -162q0 -82 45.5 -131.5 t120.5 -52.5v-225q-74 -3 -120 -53t-46 -132q0 -66 16.5 -161.5t16.5 -165.5q0 -181 -98.5 -280t-294.5 -99h-89v217z" />
<glyph unicode="~" horiz-adv-x="1241" d="M137 664q21 110 97.5 179.5t187.5 69.5q52 0 104 -18.5t87 -40.5t81 -40.5t88 -18.5q62 0 110.5 35.5t70.5 93.5l139 -105q-21 -111 -96.5 -180.5t-186.5 -69.5q-52 0 -104.5 18.5t-87.5 41t-81.5 41t-88.5 18.5q-62 0 -109 -35t-69 -94z" />
<glyph unicode="&#xa1;" horiz-adv-x="600" d="M125 885q0 72 51 124t123 52t124 -52t52 -124t-52 -124t-124 -52t-123 52t-51 124zM135 -440l43 964h244l43 -964h-330z" />
<glyph unicode="&#xa2;" horiz-adv-x="974" d="M109 809q0 117 31.5 212t87 158.5t125.5 102.5t153 53l-25 273h219l-24 -267q128 -9 221 -67l-88 -189q-64 45 -164 45q-108 0 -177 -82t-69 -235t70 -236t176 -83q103 0 164 43l88 -195q-95 -60 -221 -68l24 -274h-219l27 281q-83 14 -153.5 53.5t-126.5 103t-87.5 159 t-31.5 212.5z" />
<glyph unicode="&#xa3;" horiz-adv-x="1284" d="M113 0q122 127 196 269t74 284q0 69 -12 121h-221v205h176q-27 102 -27 190q0 208 132.5 323t361.5 115q203 0 352 -80l-92 -223q-98 58 -224 58q-116 0 -182.5 -57.5t-66.5 -153.5q0 -77 26 -172h355v-205h-322q12 -70 12 -121q0 -83 -32.5 -165t-77.5 -146h610v-242 h-1038z" />
<glyph unicode="&#xa4;" horiz-adv-x="1456" d="M109 174l217 232q-60 111 -60 245q0 135 60 246l-217 231l184 158l203 -213q106 66 231 66t231 -66l203 213l185 -158l-216 -231q60 -111 60 -246q0 -134 -60 -245l216 -232l-185 -158l-203 213q-105 -65 -231 -65t-231 65l-203 -213zM508 651q0 -125 60 -199.5 t159 -74.5t159 74.5t60 199.5t-60 200t-159 75t-159 -75t-60 -200z" />
<glyph unicode="&#xa5;" horiz-adv-x="1392" d="M113 1483h311l270 -586h4l273 586h311l-268 -520h233v-144h-305l-106 -198h411v-144h-411v-477h-279v477h-412v144h412l-104 198h-308v144h236z" />
<glyph unicode="&#xa6;" horiz-adv-x="544" d="M133 379h279v-819h-279v819zM133 788v820h279v-820h-279z" />
<glyph unicode="&#xa7;" horiz-adv-x="1204" d="M98 594q0 203 219 348q-73 83 -73 209q0 160 114 258t297 98q204 0 344 -80l-81 -204q-104 61 -230 61q-77 0 -123.5 -39.5t-46.5 -103.5q0 -87 98 -148l275 -176q215 -135 215 -338q0 -104 -64.5 -193t-158.5 -151q102 -107 102 -246q0 -156 -115 -255t-305 -99 q-108 0 -206.5 22t-163.5 58l84 219q48 -28 121.5 -46.5t138.5 -18.5q75 0 119 38t44 99q0 85 -100 149l-283 181q-114 73 -167.5 158t-53.5 200zM346 608q0 -107 113 -178l260 -166q57 35 95 87.5t38 109.5q0 60 -29 104.5t-92 85.5l-254 162q-131 -83 -131 -205z" />
<glyph unicode="&#xa8;" horiz-adv-x="702" d="M6 1374q0 53 40 90t97 37t97.5 -37.5t40.5 -89.5q0 -53 -40.5 -91t-97.5 -38t-97 38t-40 91zM424 1374q0 53 39 90t96 37t97 -37t40 -90t-40 -91t-97 -38t-96 38t-39 91z" />
<glyph unicode="&#xa9;" horiz-adv-x="1761" d="M102 741q0 159 59 300.5t161.5 244t248 162t310.5 59.5t310.5 -59.5t247.5 -162t161 -244t59 -300.5t-59 -300.5t-161 -244t-247.5 -162t-310.5 -59.5t-310.5 59.5t-248 162t-161.5 244t-59 300.5zM279 741q0 -169 77 -308t215 -219.5t310 -80.5t310 80.5t215 219.5 t77 308t-77 308.5t-215 220t-310 80.5t-310 -80.5t-215 -220t-77 -308.5zM524 748q0 206 107 314.5t276 108.5q128 0 215 -55l-65 -127q-61 37 -135 37q-91 0 -151 -68.5t-60 -207.5t60 -208t151 -69q74 0 135 37l65 -133q-87 -55 -215 -55q-168 0 -275.5 109.5 t-107.5 316.5z" />
<glyph unicode="&#xaa;" horiz-adv-x="907" d="M70 920q0 63 28 111t72.5 77.5t113 49.5t136 28.5t153.5 13.5v39q0 113 -157 113q-122 0 -242 -49l-53 141q151 59 319 59q172 0 258 -69t86 -222v-493q-50 -25 -139.5 -42.5t-183.5 -17.5q-194 0 -292.5 67.5t-98.5 193.5zM281 926q0 -56 45 -86.5t127 -30.5 q88 0 120 14v242q-57 -3 -95.5 -7t-79 -13t-64 -23.5t-38.5 -38.5t-15 -57z" />
<glyph unicode="&#xab;" horiz-adv-x="1245" d="M88 625l385 518l164 -123l-295 -395l295 -396l-164 -123zM584 625l383 518l163 -123l-292 -395l292 -396l-163 -123z" />
<glyph unicode="&#xac;" horiz-adv-x="1122" d="M125 557v217h872v-588h-231v371h-641z" />
<glyph unicode="&#xad;" horiz-adv-x="819" d="M117 547v237h585v-237h-585z" />
<glyph unicode="&#xae;" horiz-adv-x="1343" d="M94 940q0 118 43.5 223t119.5 181t184 120.5t231 44.5q164 0 296.5 -75.5t206.5 -205.5t74 -288t-74 -288t-206.5 -205.5t-296.5 -75.5q-123 0 -231 44.5t-184 120.5t-119.5 181t-43.5 223zM229 940q0 -189 125.5 -317.5t317.5 -128.5t317 128.5t125 317.5t-125 317.5 t-317 128.5t-317.5 -128.5t-125.5 -317.5zM459 645v592q76 33 196 33q123 0 189.5 -49t66.5 -138q0 -57 -33.5 -96t-86.5 -55v-4q38 -18 61 -72l94 -211h-145l-82 193q-20 53 -78 53h-49v-246h-133zM592 985h63q121 0 121 92t-117 92q-43 0 -67 -6v-178z" />
<glyph unicode="&#xaf;" horiz-adv-x="702" d="M61 1278v168h580v-168h-580z" />
<glyph unicode="&#xb0;" horiz-adv-x="970" d="M94 1124q0 160 113 271.5t278 111.5t278.5 -111.5t113.5 -271.5t-113.5 -271.5t-278.5 -111.5t-278 111.5t-113 271.5zM295 1124q0 -80 55.5 -136t134.5 -56t135 56t56 136t-56 135.5t-135 55.5t-134.5 -55.5t-55.5 -135.5z" />
<glyph unicode="&#xb1;" horiz-adv-x="1122" d="M125 0v197h872v-197h-872zM125 678v196h324v318h227v-318h321v-196h-321v-320h-227v320h-324z" />
<glyph unicode="&#xb2;" horiz-adv-x="753" d="M25 1024l378 465q68 83 68 143q0 59 -41 95t-115 36q-107 0 -196 -39l-47 136q120 49 256 49q157 0 241 -72.5t84 -196.5q0 -108 -108 -229l-219 -242h346v-145h-647z" />
<glyph unicode="&#xb3;" horiz-adv-x="753" d="M51 1057l55 135q88 -37 213 -37q79 0 121.5 31.5t42.5 87.5q0 61 -66.5 97t-176.5 36h-19v129q113 6 173.5 41.5t60.5 89.5q0 46 -35.5 71t-102.5 25q-105 0 -194 -39l-51 136q126 49 270 49q143 0 217 -61.5t74 -168.5q0 -60 -39 -108t-100 -76v-4q73 -28 120.5 -82.5 t47.5 -134.5q0 -121 -91.5 -193.5t-251.5 -72.5q-148 0 -268 49z" />
<glyph unicode="&#xb4;" horiz-adv-x="702" d="M207 1231l143 270q59 62 156 62q41 0 72 -16.5t40 -45.5l-219 -270h-192z" />
<glyph unicode="&#xb5;" horiz-adv-x="1155" d="M125 -440v1544h278v-858q68 -47 183 -47q106 0 166 47v858h278v-1016q-63 -52 -162.5 -82.5t-205.5 -30.5q-150 0 -259 56v-471h-278z" />
<glyph unicode="&#xb6;" horiz-adv-x="1245" d="M96 1040q0 228 149 347.5t400 119.5q276 0 455 -80v-1867h-201v1724q-89 29 -217 29h-27v-1753h-198v1042q-164 33 -262.5 148.5t-98.5 289.5z" />
<glyph unicode="&#xb7;" horiz-adv-x="557" d="M102 666q0 72 52.5 124t124.5 52t124 -52t52 -124t-52 -124.5t-124 -52.5t-124.5 52.5t-52.5 124.5z" />
<glyph unicode="&#xb8;" horiz-adv-x="702" d="M74 -430l59 108q58 -6 105 -6q86 0 136 19t50 51q0 29 -28 41t-89 12q-49 0 -117 -6l54 98q79 7 118 7q265 0 265 -152q0 -89 -98.5 -135.5t-278.5 -46.5q-71 0 -176 10z" />
<glyph unicode="&#xb9;" horiz-adv-x="753" d="M121 1761q89 14 175 50t128 81h139v-868h-178v672q-40 -23 -108 -42.5t-127 -27.5z" />
<glyph unicode="&#xba;" horiz-adv-x="954" d="M86 1081q0 187 104 304.5t287 117.5t287 -117.5t104 -304.5t-104 -304.5t-287 -117.5t-287 117.5t-104 304.5zM307 1083q0 -120 44 -187t126 -67t125 67t43 187t-43 186t-125 66t-126 -66t-44 -186z" />
<glyph unicode="&#xbb;" horiz-adv-x="1245" d="M115 229l293 396l-293 395l161 123l386 -518l-386 -519zM608 229l295 396l-295 395l164 123l385 -518l-385 -519z" />
<glyph unicode="&#xbc;" horiz-adv-x="1757" d="M43 1352q89 14 175 50t128 81h139v-869h-178v672q-40 -22 -107 -41.5t-126 -27.5zM414 41l782 1475l137 -74l-780 -1475zM1022 213v125l364 530h189v-530h90v-125h-90v-213h-162v213h-391zM1176 338h243v270l4 109h-4q-22 -51 -51 -94z" />
<glyph unicode="&#xbd;" horiz-adv-x="1757" d="M43 1352q89 14 175 50t128 81h139v-869h-178v672q-40 -22 -107 -41.5t-126 -27.5zM367 41l780 1475l139 -74l-782 -1475zM1026 0l379 465q68 83 68 143q0 59 -41 95t-115 36q-106 0 -195 -39l-49 136q120 49 256 49q157 0 242.5 -72.5t85.5 -196.5q0 -105 -111 -229 l-219 -242h346v-145h-647z" />
<glyph unicode="&#xbe;" horiz-adv-x="1757" d="M51 647l55 135q88 -37 213 -37q79 0 121.5 31.5t42.5 87.5q0 61 -66.5 97t-176.5 36h-19v129q113 6 173.5 41.5t60.5 89.5q0 46 -35.5 71.5t-102.5 25.5q-105 0 -194 -39l-51 135q126 49 270 49q143 0 217 -61t74 -168q0 -60 -39 -108.5t-100 -76.5v-4 q73 -28 120.5 -82.5t47.5 -134.5q0 -121 -91.5 -193.5t-251.5 -72.5q-148 0 -268 49zM459 41l782 1475l137 -74l-782 -1475zM1022 213v125l364 530h189v-530h90v-125h-90v-213h-162v213h-391zM1176 338h243v270l4 109h-4q-22 -51 -51 -94z" />
<glyph unicode="&#xbf;" horiz-adv-x="1026" d="M82 -78q0 73 30 137.5t81 111t107.5 79.5t119.5 55l16 219h232l22 -356q-137 -31 -225 -89t-88 -142q0 -173 235 -173q66 0 143 18t130 44l88 -211q-78 -36 -185.5 -58t-214.5 -22q-238 0 -364.5 99t-126.5 288zM375 885q0 72 52 124t124 52t124 -52t52 -124t-52 -124 t-124 -52t-124 52t-52 124z" />
<glyph unicode="&#xc0;" horiz-adv-x="1359" d="M14 0l496 1483h340l496 -1483h-302l-108 346h-512l-109 -346h-301zM379 1880q9 28 41.5 45t73.5 17q94 0 153 -62l144 -270h-191zM481 559h398l-156 506q-12 37 -22 82t-15 71l-4 27h-4q-14 -96 -41 -180z" />
<glyph unicode="&#xc1;" horiz-adv-x="1359" d="M14 0l496 1483h340l496 -1483h-302l-108 346h-512l-109 -346h-301zM481 559h398l-156 506q-12 37 -22 82t-15 71l-4 27h-4q-14 -96 -41 -180zM569 1610l144 270q59 62 155 62q41 0 72.5 -16.5t40.5 -45.5l-219 -270h-193z" />
<glyph unicode="&#xc2;" horiz-adv-x="1359" d="M14 0l496 1483h340l496 -1483h-302l-108 346h-512l-109 -346h-301zM377 1681l213 213q38 41 92 41q52 0 90 -41l213 -213l-108 -92l-195 170l-197 -170zM481 559h398l-156 506q-12 37 -22 82t-15 71l-4 27h-4q-14 -96 -41 -180z" />
<glyph unicode="&#xc3;" horiz-adv-x="1359" d="M14 0l496 1483h340l496 -1483h-302l-108 346h-512l-109 -346h-301zM367 1683q9 92 57.5 149.5t124.5 57.5q45 0 83 -23t70 -46t62 -23q38 0 62 27.5t32 75.5l127 -74q-9 -92 -58.5 -149.5t-125.5 -57.5q-45 0 -83 23t-70 46t-62 23q-37 0 -61.5 -27.5t-32.5 -74.5z M481 559h398l-156 506q-12 37 -22 82t-15 71l-4 27h-4q-14 -96 -41 -180z" />
<glyph unicode="&#xc4;" horiz-adv-x="1359" d="M14 0l496 1483h340l496 -1483h-302l-108 346h-512l-109 -346h-301zM334 1753q0 53 40 90t97 37t97 -37t40 -90t-40 -91t-97 -38t-97 38t-40 91zM481 559h398l-156 506q-12 37 -22 82t-15 71l-4 27h-4q-14 -96 -41 -180zM750 1753q0 53 40 90t97 37t97 -37t40 -90t-40 -91 t-97 -38t-97 38t-40 91z" />
<glyph unicode="&#xc5;" horiz-adv-x="1359" d="M14 0l496 1483h340l496 -1483h-302l-108 346h-512l-109 -346h-301zM465 1786q0 85 62 142t153 57t152 -57t61 -142t-61 -143t-152 -58t-153 58t-62 143zM481 559h398l-156 506q-12 37 -22 82t-15 71l-4 27h-4q-14 -96 -41 -180zM586 1786q0 -38 28 -65t66 -27t65 27 t27 65t-27 64t-65 26q-39 0 -66.5 -26t-27.5 -64z" />
<glyph unicode="&#xc6;" horiz-adv-x="1789" d="M-23 0l687 1483h931v-242h-544l79 -371h445v-237h-397l84 -391h454v-242h-704l-62 346h-512l-153 -346h-308zM520 559h400l-91 506q-6 37 -10.5 82t-6.5 71l-1 27h-4q-25 -96 -62 -180z" />
<glyph unicode="&#xc7;" horiz-adv-x="1073" d="M94 741q0 188 45.5 336.5t126.5 241t186.5 140.5t229.5 48q96 0 182 -22t140 -58l-91 -231q-78 59 -196 59q-147 0 -236.5 -133.5t-89.5 -378.5t89.5 -377.5t236.5 -132.5q119 0 196 58l91 -236q-54 -36 -139 -58t-183 -22q-124 0 -229.5 48t-186.5 140.5t-126.5 241 t-45.5 336.5zM279 -430l59 108q59 -6 104 -6q86 0 136.5 19t50.5 51q0 29 -28 41t-89 12q-50 0 -117 -6l54 98q79 7 118 7q264 0 264 -152q0 -90 -98 -136t-278 -46q-71 0 -176 10z" />
<glyph unicode="&#xc8;" horiz-adv-x="1017" d="M137 0v1483h789v-242h-506v-371h457v-237h-457v-391h506v-242h-789zM240 1880q9 28 41 45t73 17q95 0 154 -62l143 -270h-190z" />
<glyph unicode="&#xc9;" horiz-adv-x="1017" d="M137 0v1483h789v-242h-506v-371h457v-237h-457v-391h506v-242h-789zM391 1610l144 270q59 62 155 62q41 0 72.5 -16.5t40.5 -45.5l-219 -270h-193z" />
<glyph unicode="&#xca;" horiz-adv-x="1017" d="M137 0v1483h789v-242h-506v-371h457v-237h-457v-391h506v-242h-789zM215 1681l213 213q38 41 92 41q52 0 90 -41l213 -213l-108 -92l-195 170l-196 -170z" />
<glyph unicode="&#xcb;" horiz-adv-x="1017" d="M137 0v1483h789v-242h-506v-371h457v-237h-457v-391h506v-242h-789zM184 1753q0 52 40.5 89.5t97.5 37.5t97 -37t40 -90t-40 -91t-97 -38t-97.5 38t-40.5 91zM600 1753q0 53 40 90t97 37t97 -37t40 -90t-40 -91t-97 -38t-97 38t-40 91z" />
<glyph unicode="&#xcc;" horiz-adv-x="563" d="M0 1880q9 28 41.5 45t73.5 17q94 0 153 -62l144 -270h-191zM137 0v1483h289v-1483h-289z" />
<glyph unicode="&#xcd;" horiz-adv-x="563" d="M137 0v1483h289v-1483h-289zM152 1610l143 270q59 62 156 62q41 0 72 -16.5t40 -45.5l-219 -270h-192z" />
<glyph unicode="&#xce;" horiz-adv-x="563" d="M-23 1681l213 213q38 41 93 41q52 0 90 -41l213 -213l-109 -92l-194 170l-197 -170zM137 0v1483h289v-1483h-289z" />
<glyph unicode="&#xcf;" horiz-adv-x="563" d="M-63 1753q0 53 40 90t97 37t97 -37t40 -90t-40 -91t-97 -38t-97 38t-40 91zM137 0v1483h289v-1483h-289zM352 1753q0 53 40 90t97 37t97.5 -37.5t40.5 -89.5q0 -53 -40.5 -91t-97.5 -38t-97 38t-40 91z" />
<glyph unicode="&#xd0;" horiz-adv-x="1314" d="M53 651v207h105v569q72 35 181 57.5t226 22.5q313 0 484.5 -197.5t171.5 -568.5t-171.5 -568.5t-484.5 -197.5q-120 0 -228 22.5t-179 57.5v596h-105zM440 236q43 -19 142 -19q163 0 258.5 129t95.5 395t-95.5 395.5t-258.5 129.5q-88 0 -142 -21v-387h201v-207h-201 v-415z" />
<glyph unicode="&#xd1;" horiz-adv-x="1376" d="M137 0v1483h248l518 -856q21 -36 43 -79.5t34 -69.5l11 -25h4q-4 104 -4 198v832h248v-1483h-238l-530 879q-22 36 -44 79.5t-33 69.5l-11 25h-4q4 -101 4 -193v-860h-246zM367 1683q9 92 57.5 149.5t124.5 57.5q45 0 83 -23t70 -46t62 -23q38 0 62 27.5t32 75.5l127 -74 q-9 -92 -58.5 -149.5t-125.5 -57.5q-45 0 -83 23t-70 46t-62 23q-37 0 -61.5 -27.5t-32.5 -74.5z" />
<glyph unicode="&#xd2;" d="M94 741q0 164 35.5 302t105 242.5t180.5 163t253 58.5t253 -58.5t180 -163t104.5 -242.5t35.5 -302t-35.5 -302t-104.5 -242.5t-180 -163t-253 -58.5t-253 58.5t-180.5 163t-105 242.5t-35.5 302zM383 741q0 -235 73.5 -372.5t211.5 -137.5t211 137.5t73 372.5t-73 372.5 t-211 137.5t-211.5 -137.5t-73.5 -372.5zM383 1880q9 28 41.5 45t73.5 17q94 0 153 -62l144 -270h-191z" />
<glyph unicode="&#xd3;" d="M94 741q0 164 35.5 302t105 242.5t180.5 163t253 58.5t253 -58.5t180 -163t104.5 -242.5t35.5 -302t-35.5 -302t-104.5 -242.5t-180 -163t-253 -58.5t-253 58.5t-180.5 163t-105 242.5t-35.5 302zM383 741q0 -235 73.5 -372.5t211.5 -137.5t211 137.5t73 372.5t-73 372.5 t-211 137.5t-211.5 -137.5t-73.5 -372.5zM539 1610l143 270q59 62 156 62q41 0 72 -16.5t40 -45.5l-219 -270h-192z" />
<glyph unicode="&#xd4;" d="M94 741q0 164 35.5 302t105 242.5t180.5 163t253 58.5t253 -58.5t180 -163t104.5 -242.5t35.5 -302t-35.5 -302t-104.5 -242.5t-180 -163t-253 -58.5t-253 58.5t-180.5 163t-105 242.5t-35.5 302zM362 1681l213 213q38 41 93 41q52 0 90 -41l213 -213l-109 -92l-194 170 l-197 -170zM383 741q0 -235 73.5 -372.5t211.5 -137.5t211 137.5t73 372.5t-73 372.5t-211 137.5t-211.5 -137.5t-73.5 -372.5z" />
<glyph unicode="&#xd5;" d="M94 741q0 164 35.5 302t105 242.5t180.5 163t253 58.5t253 -58.5t180 -163t104.5 -242.5t35.5 -302t-35.5 -302t-104.5 -242.5t-180 -163t-253 -58.5t-253 58.5t-180.5 163t-105 242.5t-35.5 302zM350 1683q9 92 57.5 149.5t124.5 57.5q36 0 68 -14.5t52 -31.5t46 -31.5 t50 -14.5q38 0 62 27.5t32 75.5l127 -74q-9 -91 -59 -149t-126 -58q-45 0 -83 23t-70 46t-62 23q-37 0 -61.5 -27.5t-32.5 -74.5zM383 741q0 -235 73.5 -372.5t211.5 -137.5t211 137.5t73 372.5t-73 372.5t-211 137.5t-211.5 -137.5t-73.5 -372.5z" />
<glyph unicode="&#xd6;" d="M94 741q0 164 35.5 302t105 242.5t180.5 163t253 58.5t253 -58.5t180 -163t104.5 -242.5t35.5 -302t-35.5 -302t-104.5 -242.5t-180 -163t-253 -58.5t-253 58.5t-180.5 163t-105 242.5t-35.5 302zM322 1753q0 53 40 90t97 37t97 -37t40 -90t-40 -91t-97 -38t-97 38 t-40 91zM383 741q0 -235 73.5 -372.5t211.5 -137.5t211 137.5t73 372.5t-73 372.5t-211 137.5t-211.5 -137.5t-73.5 -372.5zM737 1753q0 53 40 90t97 37t97.5 -37.5t40.5 -89.5q0 -53 -40.5 -91t-97.5 -38t-97 38t-40 91z" />
<glyph unicode="&#xd7;" horiz-adv-x="1122" d="M102 362l304 304l-304 303l156 155l303 -303l305 303l156 -155l-305 -303l305 -304l-156 -155l-305 303l-303 -303z" />
<glyph unicode="&#xd8;" d="M94 741q0 164 35.5 302t105 242.5t180.5 163t253 58.5q193 0 327 -112l117 186l129 -84l-139 -221q139 -207 139 -535q0 -164 -35.5 -302t-104.5 -242.5t-180 -163t-253 -58.5q-188 0 -322 109l-121 -190l-129 83l142 224q-144 209 -144 540zM358 741q0 -169 37 -290 l465 735q-75 90 -192 90q-151 0 -230.5 -145t-79.5 -390zM479 293q77 -86 189 -86q151 0 230 144.5t79 389.5q0 161 -35 283z" />
<glyph unicode="&#xd9;" horiz-adv-x="1286" d="M137 438v1045h289v-1047q0 -96 62 -152.5t155 -56.5t155 56.5t62 152.5v1047h289v-1045q0 -214 -141.5 -336t-364.5 -122t-364.5 122t-141.5 336zM367 1880q9 28 41 45t73 17q95 0 154 -62l143 -270h-190z" />
<glyph unicode="&#xda;" horiz-adv-x="1286" d="M137 438v1045h289v-1047q0 -96 62 -152.5t155 -56.5t155 56.5t62 152.5v1047h289v-1045q0 -214 -141.5 -336t-364.5 -122t-364.5 122t-141.5 336zM508 1610l143 270q59 62 156 62q41 0 72.5 -16.5t40.5 -45.5l-220 -270h-192z" />
<glyph unicode="&#xdb;" horiz-adv-x="1286" d="M137 438v1045h289v-1047q0 -96 62 -152.5t155 -56.5t155 56.5t62 152.5v1047h289v-1045q0 -214 -141.5 -336t-364.5 -122t-364.5 122t-141.5 336zM340 1681l213 213q38 41 92 41q52 0 90 -41l213 -213l-108 -92l-195 170l-196 -170z" />
<glyph unicode="&#xdc;" horiz-adv-x="1286" d="M137 438v1045h289v-1047q0 -96 62 -152.5t155 -56.5t155 56.5t62 152.5v1047h289v-1045q0 -214 -141.5 -336t-364.5 -122t-364.5 122t-141.5 336zM297 1753q0 53 40 90t97 37t97 -37t40 -90t-40 -91t-97 -38t-97 38t-40 91zM713 1753q0 53 40 90t97 37t97 -37t40 -90 t-40 -91t-97 -38t-97 38t-40 91z" />
<glyph unicode="&#xdd;" horiz-adv-x="1198" d="M14 1483h312l270 -611h4l272 611h312l-441 -901v-582h-288v582zM473 1610l143 270q59 62 156 62q41 0 72.5 -16.5t40.5 -45.5l-219 -270h-193z" />
<glyph unicode="&#xde;" horiz-adv-x="1222" d="M137 0v1483h283v-277q68 21 145 21q278 0 425 -126t147 -349q0 -209 -151 -338t-429 -129q-82 0 -137 10v-295h-283zM420 514q48 -10 123 -10q151 0 231 66t80 184q0 252 -285 252q-84 0 -149 -21v-471z" />
<glyph unicode="&#xdf;" horiz-adv-x="1300" d="M125 0v1114q0 238 127 378t364 140q97 0 176 -23.5t133.5 -64.5t91 -98t53.5 -121.5t17 -136.5q0 -94 -24 -182q-191 -26 -191 -160q0 -34 21 -66t43 -50.5t68 -51.5q40 -29 62.5 -47.5t57 -53.5t53.5 -67t33.5 -79t14.5 -99q0 -163 -110.5 -257.5t-293.5 -94.5 q-75 0 -155 17.5t-127 43.5l55 217q81 -45 172 -45q80 0 126 36t46 101q0 32 -10.5 59t-35 53t-42 40.5t-55.5 42.5q-47 35 -73.5 58t-61.5 62.5t-51.5 86.5t-16.5 102q0 96 57.5 169t167.5 114q4 20 4 61q0 96 -49 154.5t-149 58.5q-110 0 -165 -79t-55 -218v-1114h-278z " />
<glyph unicode="&#xe0;" horiz-adv-x="1107" d="M74 332q0 73 24 131t70.5 97.5t103 67t134 44.5t150.5 25.5t165 13.5v57q0 158 -207 158q-73 0 -159 -19.5t-150 -46.5l-70 189q77 33 187.5 56t222.5 23q219 0 329.5 -93t110.5 -300v-680q-64 -34 -179 -57t-235 -23q-246 0 -371.5 93t-125.5 264zM311 1501 q9 28 41.5 45t73.5 17q95 0 154 -62l143 -270h-191zM336 338q0 -78 59 -121t168 -43q102 0 158 23v335q-52 -3 -86.5 -5.5t-78.5 -8.5t-73 -14.5t-59.5 -23t-48 -33.5t-28.5 -46.5t-11 -62.5z" />
<glyph unicode="&#xe1;" horiz-adv-x="1107" d="M74 332q0 73 24 131t70.5 97.5t103 67t134 44.5t150.5 25.5t165 13.5v57q0 158 -207 158q-73 0 -159 -19.5t-150 -46.5l-70 189q77 33 187.5 56t222.5 23q219 0 329.5 -93t110.5 -300v-680q-64 -34 -179 -57t-235 -23q-246 0 -371.5 93t-125.5 264zM336 338 q0 -78 59 -121t168 -43q102 0 158 23v335q-52 -3 -86.5 -5.5t-78.5 -8.5t-73 -14.5t-59.5 -23t-48 -33.5t-28.5 -46.5t-11 -62.5zM430 1231l143 270q59 62 156 62q41 0 72.5 -16.5t40.5 -45.5l-219 -270h-193z" />
<glyph unicode="&#xe2;" horiz-adv-x="1107" d="M74 332q0 73 24 131t70.5 97.5t103 67t134 44.5t150.5 25.5t165 13.5v57q0 158 -207 158q-73 0 -159 -19.5t-150 -46.5l-70 189q77 33 187.5 56t222.5 23q219 0 329.5 -93t110.5 -300v-680q-64 -34 -179 -57t-235 -23q-246 0 -371.5 93t-125.5 264zM248 1303l213 213 q37 40 92 40q53 0 90 -40l213 -213l-108 -93l-195 170l-197 -170zM336 338q0 -78 59 -121t168 -43q102 0 158 23v335q-52 -3 -86.5 -5.5t-78.5 -8.5t-73 -14.5t-59.5 -23t-48 -33.5t-28.5 -46.5t-11 -62.5z" />
<glyph unicode="&#xe3;" horiz-adv-x="1107" d="M74 332q0 73 24 131t70.5 97.5t103 67t134 44.5t150.5 25.5t165 13.5v57q0 158 -207 158q-73 0 -159 -19.5t-150 -46.5l-70 189q77 33 187.5 56t222.5 23q219 0 329.5 -93t110.5 -300v-680q-64 -34 -179 -57t-235 -23q-246 0 -371.5 93t-125.5 264zM250 1305 q9 92 57.5 149t124.5 57q45 0 83 -23t70 -46t62 -23q38 0 62 27.5t32 75.5l127 -74q-9 -92 -58.5 -149.5t-125.5 -57.5q-45 0 -83 23t-70 46t-62 23q-37 0 -61.5 -27.5t-32.5 -74.5zM336 338q0 -78 59 -121t168 -43q102 0 158 23v335q-52 -3 -86.5 -5.5t-78.5 -8.5 t-73 -14.5t-59.5 -23t-48 -33.5t-28.5 -46.5t-11 -62.5z" />
<glyph unicode="&#xe4;" horiz-adv-x="1107" d="M74 332q0 73 24 131t70.5 97.5t103 67t134 44.5t150.5 25.5t165 13.5v57q0 158 -207 158q-73 0 -159 -19.5t-150 -46.5l-70 189q77 33 187.5 56t222.5 23q219 0 329.5 -93t110.5 -300v-680q-64 -34 -179 -57t-235 -23q-246 0 -371.5 93t-125.5 264zM225 1374q0 53 40 90 t97 37t96.5 -37t39.5 -90t-39.5 -91t-96.5 -38t-97 38t-40 91zM336 338q0 -78 59 -121t168 -43q102 0 158 23v335q-52 -3 -86.5 -5.5t-78.5 -8.5t-73 -14.5t-59.5 -23t-48 -33.5t-28.5 -46.5t-11 -62.5zM643 1374q0 53 40 90t97 37t96 -37t39 -90t-39 -91t-96 -38t-97 38 t-40 91z" />
<glyph unicode="&#xe5;" horiz-adv-x="1107" d="M74 332q0 73 24 131t70.5 97.5t103 67t134 44.5t150.5 25.5t165 13.5v57q0 158 -207 158q-73 0 -159 -19.5t-150 -46.5l-70 189q77 33 187.5 56t222.5 23q219 0 329.5 -93t110.5 -300v-680q-64 -34 -179 -57t-235 -23q-246 0 -371.5 93t-125.5 264zM336 338 q0 -78 59 -121t168 -43q102 0 158 23v335q-52 -3 -86.5 -5.5t-78.5 -8.5t-73 -14.5t-59.5 -23t-48 -33.5t-28.5 -46.5t-11 -62.5zM350 1411q0 85 62 142t153 57t152 -57t61 -142t-61 -143t-152 -58t-153 58t-62 143zM471 1411q0 -38 28 -65t66 -27t65 27t27 65t-27 64 t-65 26q-39 0 -66.5 -26t-27.5 -64z" />
<glyph unicode="&#xe6;" horiz-adv-x="1769" d="M74 332q0 73 24 131t70.5 97.5t103 67t134 44.5t150.5 25.5t165 13.5v57q0 158 -207 158q-73 0 -159 -19.5t-150 -46.5l-70 189q77 33 184.5 56t212.5 23q142 0 224 -39.5t116 -121.5q117 161 345 161q222 0 344 -141t122 -383q0 -47 -2 -72l-704 -96q20 -119 100 -180 t205 -61q79 0 160.5 19t140.5 50l80 -209q-70 -36 -174.5 -58t-222.5 -22q-140 0 -245.5 50.5t-150.5 126.5q-34 -75 -127 -126t-217 -51q-216 0 -334 96t-118 261zM336 338q0 -76 52 -120t149 -44q83 0 133.5 48.5t50.5 123.5v186q-52 -3 -86.5 -5.5t-78.5 -8.5t-73 -14.5 t-59.5 -23t-48 -33.5t-28.5 -46.5t-11 -62.5zM954 612l457 64q0 122 -57 186t-156 64q-111 0 -177 -82t-67 -232z" />
<glyph unicode="&#xe7;" horiz-adv-x="935" d="M86 553q0 143 40.5 255t110 180.5t157 104t186.5 35.5q180 0 292 -75l-88 -201q-62 47 -163 47q-108 0 -177 -89.5t-69 -254.5q0 -164 70 -254t176 -90q98 0 163 49l88 -209q-116 -76 -292 -76q-99 0 -186.5 36t-157 105t-110 181.5t-40.5 255.5zM197 -430l59 108 q59 -6 104 -6q86 0 136.5 19t50.5 51q0 29 -28 41t-89 12q-50 0 -117 -6l54 98q79 7 118 7q265 0 265 -152q0 -89 -98.5 -135.5t-278.5 -46.5q-71 0 -176 10z" />
<glyph unicode="&#xe8;" horiz-adv-x="1159" d="M86 553q0 258 137 416.5t375 158.5q225 0 350 -135.5t125 -365.5q0 -62 -4 -95l-711 -96q18 -119 99.5 -180t206.5 -61q82 0 165 19t142 50l80 -209q-70 -36 -180 -58t-228 -22q-267 0 -412 158t-145 420zM319 1501q9 28 41.5 45t73.5 17q95 0 154 -62l143 -270h-190z M340 612l463 64q0 122 -56 186t-155 64q-112 0 -180.5 -81.5t-71.5 -232.5z" />
<glyph unicode="&#xe9;" horiz-adv-x="1159" d="M86 553q0 258 137 416.5t375 158.5q225 0 350 -135.5t125 -365.5q0 -62 -4 -95l-711 -96q18 -119 99.5 -180t206.5 -61q82 0 165 19t142 50l80 -209q-70 -36 -180 -58t-228 -22q-267 0 -412 158t-145 420zM340 612l463 64q0 122 -56 186t-155 64q-112 0 -180.5 -81.5 t-71.5 -232.5zM465 1231l143 270q59 62 156 62q41 0 72.5 -16.5t40.5 -45.5l-220 -270h-192z" />
<glyph unicode="&#xea;" horiz-adv-x="1159" d="M86 553q0 258 137 416.5t375 158.5q225 0 350 -135.5t125 -365.5q0 -62 -4 -95l-711 -96q18 -119 99.5 -180t206.5 -61q82 0 165 19t142 50l80 -209q-70 -36 -180 -58t-228 -22q-267 0 -412 158t-145 420zM283 1303l213 213q37 40 92 40q53 0 90 -40l213 -213l-109 -93 l-194 170l-197 -170zM340 612l463 64q0 122 -56 186t-155 64q-112 0 -180.5 -81.5t-71.5 -232.5z" />
<glyph unicode="&#xeb;" horiz-adv-x="1159" d="M86 553q0 258 137 416.5t375 158.5q225 0 350 -135.5t125 -365.5q0 -62 -4 -95l-711 -96q18 -119 99.5 -180t206.5 -61q82 0 165 19t142 50l80 -209q-70 -36 -180 -58t-228 -22q-267 0 -412 158t-145 420zM242 1374q0 53 40 90t97 37t96 -37t39 -90t-39 -91t-96 -38 t-97 38t-40 91zM340 612l463 64q0 122 -56 186t-155 64q-112 0 -180.5 -81.5t-71.5 -232.5zM659 1374q0 52 40.5 89.5t97.5 37.5t96 -37t39 -90t-39 -91t-96 -38t-97.5 38t-40.5 91z" />
<glyph unicode="&#xec;" horiz-adv-x="536" d="M-6 1501q9 28 41.5 45t73.5 17q94 0 153 -62l144 -270h-191zM129 0v1104h279v-1104h-279z" />
<glyph unicode="&#xed;" horiz-adv-x="536" d="M129 0v1104h279v-1104h-279zM131 1231l143 270q59 62 156 62q41 0 72.5 -16.5t40.5 -45.5l-219 -270h-193z" />
<glyph unicode="&#xee;" horiz-adv-x="536" d="M-35 1303l213 213q37 40 92 40q53 0 90 -40l213 -213l-108 -93l-195 170l-196 -170zM129 0v1104h279v-1104h-279z" />
<glyph unicode="&#xef;" horiz-adv-x="536" d="M-76 1374q0 53 40 90t97 37t96.5 -37t39.5 -90t-39.5 -91t-96.5 -38t-97 38t-40 91zM129 0v1104h279v-1104h-279zM340 1374q0 53 40 90t97 37t96 -37t39 -90t-39 -91t-96 -38t-97 38t-40 91z" />
<glyph unicode="&#xf0;" horiz-adv-x="1173" d="M86 553q0 252 136.5 406.5t363.5 154.5q49 0 100 -14q-36 79 -102 180l-189 -63l-90 135l184 61q-42 54 -116 135l245 80q60 -63 115 -133l176 59l92 -133l-170 -57q252 -378 252 -811q0 -124 -33 -229.5t-94.5 -183t-156.5 -121.5t-213 -44q-157 0 -271.5 76 t-171.5 205.5t-57 296.5zM365 555q0 -168 56 -260t165 -92t164 91t55 259q0 174 -47 332q-58 20 -133 20q-119 0 -189.5 -94.5t-70.5 -255.5z" />
<glyph unicode="&#xf1;" horiz-adv-x="1169" d="M125 0v1049q197 79 440 79q479 0 479 -372v-756h-280v727q0 84 -50.5 131t-144.5 47q-97 0 -166 -26v-879h-278zM262 1305q9 92 57.5 149t124.5 57q45 0 83 -23t70 -46t62 -23q38 0 62.5 27.5t32.5 75.5l127 -74q-9 -91 -59 -149t-126 -58q-45 0 -83 23t-70 46t-62 23 q-37 0 -61.5 -27.5t-32.5 -74.5z" />
<glyph unicode="&#xf2;" horiz-adv-x="1171" d="M86 553q0 255 132.5 415t367.5 160t367 -160t132 -415q0 -124 -33 -229.5t-95 -183t-157.5 -121.5t-213.5 -44q-157 0 -271.5 76t-171.5 205.5t-57 296.5zM297 1501q9 28 41.5 45t73.5 17q94 0 153 -62l144 -270h-191zM365 555q0 -168 56 -260t165 -92t165 92t56 260 t-56 261t-165 93t-165 -93t-56 -261z" />
<glyph unicode="&#xf3;" horiz-adv-x="1171" d="M86 553q0 255 132.5 415t367.5 160t367 -160t132 -415q0 -124 -33 -229.5t-95 -183t-157.5 -121.5t-213.5 -44q-157 0 -271.5 76t-171.5 205.5t-57 296.5zM365 555q0 -168 56 -260t165 -92t165 92t56 260t-56 261t-165 93t-165 -93t-56 -261zM455 1231l143 270 q59 62 156 62q41 0 72 -16.5t40 -45.5l-219 -270h-192z" />
<glyph unicode="&#xf4;" horiz-adv-x="1171" d="M86 553q0 255 132.5 415t367.5 160t367 -160t132 -415q0 -124 -33 -229.5t-95 -183t-157.5 -121.5t-213.5 -44q-157 0 -271.5 76t-171.5 205.5t-57 296.5zM283 1303l213 213q37 40 92 40q53 0 90 -40l213 -213l-109 -93l-194 170l-197 -170zM365 555q0 -168 56 -260 t165 -92t165 92t56 260t-56 261t-165 93t-165 -93t-56 -261z" />
<glyph unicode="&#xf5;" horiz-adv-x="1171" d="M86 553q0 255 132.5 415t367.5 160t367 -160t132 -415q0 -124 -33 -229.5t-95 -183t-157.5 -121.5t-213.5 -44q-157 0 -271.5 76t-171.5 205.5t-57 296.5zM264 1305q9 92 57.5 149t124.5 57q36 0 68 -14.5t52 -31.5t46 -31.5t50 -14.5q38 0 62 27.5t32 75.5l127 -74 q-9 -91 -59 -149t-126 -58q-45 0 -83 23t-70 46t-62 23q-37 0 -61.5 -27.5t-32.5 -74.5zM365 555q0 -168 56 -260t165 -92t165 92t56 260t-56 261t-165 93t-165 -93t-56 -261z" />
<glyph unicode="&#xf6;" horiz-adv-x="1171" d="M86 553q0 255 132.5 415t367.5 160t367 -160t132 -415q0 -124 -33 -229.5t-95 -183t-157.5 -121.5t-213.5 -44q-157 0 -271.5 76t-171.5 205.5t-57 296.5zM242 1374q0 53 40 90t97 37t96 -37t39 -90t-39 -91t-96 -38t-97 38t-40 91zM365 555q0 -168 56 -260t165 -92 t165 92t56 260t-56 261t-165 93t-165 -93t-56 -261zM659 1374q0 52 40.5 89.5t97.5 37.5t96 -37t39 -90t-39 -91t-96 -38t-97.5 38t-40.5 91z" />
<glyph unicode="&#xf7;" horiz-adv-x="1122" d="M125 569v193h872v-193h-872zM420 297q0 59 41.5 101t99.5 42q59 0 101.5 -42.5t42.5 -100.5t-42.5 -99.5t-101.5 -41.5t-100 41t-41 100zM420 1034q0 59 41.5 100.5t99.5 41.5q59 0 101.5 -42t42.5 -100t-42.5 -100.5t-101.5 -42.5q-58 0 -99.5 42t-41.5 101z" />
<glyph unicode="&#xf8;" horiz-adv-x="1171" d="M86 553q0 255 132.5 415t367.5 160q154 0 270 -77l121 172l106 -82l-127 -180q129 -157 129 -408q0 -124 -33 -229.5t-95 -183t-157.5 -121.5t-213.5 -44q-153 0 -271 78l-120 -172l-107 82l127 180q-129 160 -129 410zM336 555q0 -116 29 -199l366 518q-59 56 -145 56 q-121 0 -185.5 -104t-64.5 -271zM442 233q59 -53 144 -53q121 0 184.5 103.5t63.5 271.5q0 111 -27 193z" />
<glyph unicode="&#xf9;" horiz-adv-x="1155" d="M125 385v719h278v-725q0 -174 187 -174q100 0 162 24v875h278v-1049q-73 -36 -193 -58t-247 -22q-233 0 -349 99t-116 311zM295 1501q9 28 41.5 45t73.5 17q94 0 153 -62l144 -270h-191z" />
<glyph unicode="&#xfa;" horiz-adv-x="1155" d="M125 385v719h278v-725q0 -174 187 -174q100 0 162 24v875h278v-1049q-73 -36 -193 -58t-247 -22q-233 0 -349 99t-116 311zM449 1231l143 270q59 62 156 62q41 0 72 -16.5t40 -45.5l-219 -270h-192z" />
<glyph unicode="&#xfb;" horiz-adv-x="1155" d="M125 385v719h278v-725q0 -174 187 -174q100 0 162 24v875h278v-1049q-73 -36 -193 -58t-247 -22q-233 0 -349 99t-116 311zM272 1303l213 213q37 40 93 40q53 0 90 -40l213 -213l-109 -93l-194 170l-197 -170z" />
<glyph unicode="&#xfc;" horiz-adv-x="1155" d="M125 385v719h278v-725q0 -174 187 -174q100 0 162 24v875h278v-1049q-73 -36 -193 -58t-247 -22q-233 0 -349 99t-116 311zM233 1374q0 52 40.5 89.5t97.5 37.5t96 -37t39 -90t-39 -91t-96 -38t-97.5 38t-40.5 91zM649 1374q0 53 40 90t97 37t96.5 -37t39.5 -90 t-39.5 -91t-96.5 -38t-97 38t-40 91z" />
<glyph unicode="&#xfd;" horiz-adv-x="1181" d="M31 1104h315l207 -694q11 -36 20.5 -79.5t12.5 -68.5l4 -26h4q12 92 37 174l207 694h313l-578 -1544h-292l165 440zM477 1231l144 270q59 62 155 62q41 0 72.5 -16.5t40.5 -45.5l-219 -270h-193z" />
<glyph unicode="&#xfe;" horiz-adv-x="1165" d="M125 -440v2048h278v-527q79 37 195 37q219 0 350 -144.5t131 -404.5q0 -296 -140 -441.5t-398 -145.5q-83 0 -138 18v-440h-278zM403 219q45 -20 129 -20q125 0 196 89t71 269q0 166 -67 256t-187 90q-79 0 -142 -29v-655z" />
<glyph unicode="&#xff;" horiz-adv-x="1181" d="M31 1104h315l207 -694q11 -36 20.5 -79.5t12.5 -68.5l4 -26h4q12 92 37 174l207 694h313l-578 -1544h-292l165 440zM246 1374q0 53 40 90t97 37t96 -37t39 -90t-39 -91t-96 -38t-97 38t-40 91zM662 1374q0 53 40 90t97 37t96 -37t39 -90t-39 -91t-96 -38t-97 38t-40 91z " />
<glyph unicode="&#x152;" horiz-adv-x="1757" d="M94 741q0 232 72 403t217 267t348 96q116 0 215 -24h719v-242h-500v-371h451v-237h-451v-391h500v-242h-719q-105 -25 -215 -25q-203 0 -348 96t-217 267t-72 403zM383 741q0 -250 92 -386t264 -136q73 0 142 17v1011q-69 17 -142 17q-172 0 -264 -136.5t-92 -386.5z" />
<glyph unicode="&#x153;" horiz-adv-x="1863" d="M86 553q0 255 132.5 415t367.5 160q236 0 350 -194q119 194 367 194q229 0 352 -140.5t123 -383.5q0 -47 -2 -72l-705 -96q20 -119 100 -180t205 -61q79 0 160.5 19t140.5 50l80 -209q-70 -36 -174.5 -58t-222.5 -22q-288 0 -414 205q-115 -205 -360 -205 q-157 0 -271.5 76t-171.5 205.5t-57 296.5zM365 555q0 -168 56 -260t165 -92t165 92t56 260t-56 261t-165 93t-165 -93t-56 -261zM1049 612l456 64q0 122 -57 186t-156 64q-111 0 -176.5 -82t-66.5 -232z" />
<glyph unicode="&#x178;" horiz-adv-x="1198" d="M14 1483h312l270 -611h4l272 611h312l-441 -901v-582h-288v582zM254 1753q0 53 40 90t97 37t97 -37t40 -90t-40 -91t-97 -38t-97 38t-40 91zM670 1753q0 53 40 90t97 37t97 -37t40 -90t-40 -91t-97 -38t-97 38t-40 91z" />
<glyph unicode="&#x2c6;" horiz-adv-x="702" d="M47 1303l213 213q37 40 92 40q53 0 90 -40l213 -213l-108 -93l-195 170l-196 -170z" />
<glyph unicode="&#x2dc;" horiz-adv-x="702" d="M43 1305q9 92 57.5 149t124.5 57q45 0 83 -23t70 -46t62 -23q38 0 62.5 27.5t32.5 75.5l127 -74q-9 -91 -59 -149t-126 -58q-45 0 -83 23t-70 46t-62 23q-37 0 -61.5 -27.5t-32.5 -74.5z" />
<glyph unicode="&#x2000;" horiz-adv-x="992" />
<glyph unicode="&#x2001;" horiz-adv-x="1985" />
<glyph unicode="&#x2002;" horiz-adv-x="992" />
<glyph unicode="&#x2003;" horiz-adv-x="1985" />
<glyph unicode="&#x2004;" horiz-adv-x="661" />
<glyph unicode="&#x2005;" horiz-adv-x="496" />
<glyph unicode="&#x2006;" horiz-adv-x="330" />
<glyph unicode="&#x2007;" horiz-adv-x="330" />
<glyph unicode="&#x2008;" horiz-adv-x="248" />
<glyph unicode="&#x2009;" horiz-adv-x="397" />
<glyph unicode="&#x200a;" horiz-adv-x="110" />
<glyph unicode="&#x2010;" horiz-adv-x="819" d="M117 547v237h585v-237h-585z" />
<glyph unicode="&#x2011;" horiz-adv-x="819" d="M117 547v237h585v-237h-585z" />
<glyph unicode="&#x2012;" horiz-adv-x="819" d="M117 547v237h585v-237h-585z" />
<glyph unicode="&#x2013;" horiz-adv-x="858" d="M-8 557v217h874v-217h-874z" />
<glyph unicode="&#x2014;" horiz-adv-x="1716" d="M145 557v217h1426v-217h-1426z" />
<glyph unicode="&#x2018;" horiz-adv-x="632" d="M76 1026l293 582h188l-190 -582q-66 -98 -170 -98q-53 0 -84.5 29t-36.5 69z" />
<glyph unicode="&#x2019;" horiz-adv-x="632" d="M76 942l190 582q66 98 168 98q54 0 86 -29t37 -69l-293 -582h-188z" />
<glyph unicode="&#x201a;" horiz-adv-x="632" d="M76 -346l190 582q66 98 168 98q54 0 86 -29t37 -69l-293 -582h-188z" />
<glyph unicode="&#x201c;" horiz-adv-x="1081" d="M76 1026l293 582h188l-190 -582q-66 -98 -170 -98q-53 0 -84.5 29t-36.5 69zM524 1026l293 582h189l-191 -582q-66 -98 -168 -98q-54 0 -86 29t-37 69z" />
<glyph unicode="&#x201d;" horiz-adv-x="1081" d="M76 942l190 582q66 98 168 98q54 0 86 -29t37 -69l-293 -582h-188zM524 942l191 582q66 98 168 98q54 0 86 -29t37 -69l-293 -582h-189z" />
<glyph unicode="&#x201e;" horiz-adv-x="1081" d="M76 -346l190 582q66 98 168 98q54 0 86 -29t37 -69l-293 -582h-188zM524 -346l191 582q66 98 168 98q54 0 86 -29t37 -69l-293 -582h-189z" />
<glyph unicode="&#x2022;" horiz-adv-x="847" d="M133 666q0 121 84.5 205.5t206.5 84.5t206.5 -84.5t84.5 -205.5q0 -122 -84.5 -206.5t-206.5 -84.5t-206.5 84.5t-84.5 206.5z" />
<glyph unicode="&#x2026;" horiz-adv-x="1667" d="M102 158q0 72 52.5 124t124.5 52t124 -52t52 -124t-52 -124t-124 -52t-124.5 52t-52.5 124zM657 158q0 72 52.5 124t124.5 52t124 -52t52 -124t-52 -124t-124 -52t-124.5 52t-52.5 124zM1212 158q0 72 52.5 124t124.5 52t124 -52t52 -124t-52 -124t-124 -52t-124.5 52 t-52.5 124z" />
<glyph unicode="&#x202f;" horiz-adv-x="397" />
<glyph unicode="&#x2039;" horiz-adv-x="749" d="M88 625l385 518l164 -123l-295 -395l295 -396l-164 -123z" />
<glyph unicode="&#x203a;" horiz-adv-x="749" d="M115 229l293 396l-293 395l161 123l386 -518l-386 -519z" />
<glyph unicode="&#x205f;" horiz-adv-x="496" />
<glyph unicode="&#x20ac;" horiz-adv-x="1409" d="M109 504v143h194q-4 62 -4 94q0 53 6 103h-196v143h217q59 252 233 386t416 134q224 0 360 -80l-98 -208q-99 57 -252 57q-133 0 -233.5 -72.5t-143.5 -216.5h518v-143h-548q-5 -39 -5 -101q0 -19 5 -96h548v-143h-518q41 -146 142 -218.5t235 -72.5q156 0 252 55 l98 -213q-136 -80 -360 -80q-243 0 -417.5 136.5t-231.5 392.5h-217z" />
<glyph unicode="&#x2122;" horiz-adv-x="1937" d="M96 1319v164h627v-164h-213v-717h-201v717h-213zM766 602l115 881h229l158 -508q7 -23 13.5 -50.5t9.5 -44.5l3 -16h4q11 60 27 111l156 508h229l115 -881h-180l-64 553l-8 119h-4q-15 -64 -31 -119l-172 -553h-141l-172 553l-31 119h-4q-2 -64 -8 -119l-64 -553h-180z " />
<glyph unicode="&#x25fc;" horiz-adv-x="1105" d="M0 0v1106h1106v-1106h-1106z" />
</font>
</defs>
</svg>
